<?xml version="1.0" encoding="UTF-8" standalone="no"?>
<!-- Created with Inkscape (http://www.inkscape.org/) -->

<svg
   width="210mm"
   height="297mm"
   viewBox="0 0 210 297"
   version="1.1"
   id="svg29639"
   inkscape:version="1.1 (c68e22c387, 2021-05-23)"
   sodipodi:docname="camp_home.svg"
   xmlns:inkscape="http://www.inkscape.org/namespaces/inkscape"
   xmlns:sodipodi="http://sodipodi.sourceforge.net/DTD/sodipodi-0.dtd"
   xmlns="http://www.w3.org/2000/svg"
   xmlns:svg="http://www.w3.org/2000/svg">
  <sodipodi:namedview
     id="namedview29641"
     pagecolor="#505050"
     bordercolor="#ffffff"
     borderopacity="1"
     inkscape:pageshadow="0"
     inkscape:pageopacity="0"
     inkscape:pagecheckerboard="1"
     inkscape:document-units="mm"
     showgrid="false"
     inkscape:zoom="0.33540614"
     inkscape:cx="-192.30417"
     inkscape:cy="-16.39803"
     inkscape:window-width="1920"
     inkscape:window-height="1137"
     inkscape:window-x="-8"
     inkscape:window-y="-8"
     inkscape:window-maximized="1"
     inkscape:current-layer="layer1" />
  <defs
     id="defs29636" />
  <g
     inkscape:label="Vrstva 1"
     inkscape:groupmode="layer"
     id="layer1">
    <path
       style="color:#000000;fill:#fcf8e8;stroke-width:15.3581;stroke-linecap:square;-inkscape-stroke:none;fill-opacity:1"
       d="m 100.36583,22.943872 -5.694183,0.151369 a 4.8307685,4.8307685 0 0 0 -4.70081,4.957112 l 0.59159,22.321315 a 1.8216084,1.8216084 0 0 1 -3.3579,1.026783 L 74.78472,31.892376 a 3.5526216,3.5526216 0 0 0 -4.905385,-1.08883 l -6.959688,4.432294 a 3.5532285,3.5532285 0 0 0 -1.089199,4.905446 L 90.231307,84.752894 24.72276,204.30589 c -3.808201,6.94906 -2.199284,16.97485 3.921851,22.00451 17.249018,14.17106 37.740443,26.8339 59.229536,30.10113 5.76237,0.87609 15.269053,0.87093 21.065203,0.22447 23.82844,-2.65849 47.52357,-14.1621 65.10555,-31.70654 5.11549,-5.10295 5.76237,-14.88166 2.17471,-21.15717 L 107.94967,84.381473 133.71078,37.400721 a 5.6104215,5.6104215 0 0 0 -2.22017,-7.616647 l -3.63005,-1.989799 a 5.6100987,5.6100987 0 0 0 -7.6164,2.221276 l -11.01178,20.081302 a 1.778005,1.778005 0 0 1 -3.33578,-0.80796 l -0.57378,-21.644821 a 4.8301335,4.8301335 0 0 0 -4.95699,-4.7002 z m 0.10198,80.892848 a 3.3072693,3.3072693 0 0 1 1.7539,1.47149 l 21.16104,37.00614 c 1.61874,2.83241 3.93045,7.80224 3.32902,10.99114 -0.22607,1.19308 -2.81053,3.91042 -5.74455,5.27392 -0.0842,0.0387 -0.16894,0.0779 -0.25494,0.1169 -2.96781,1.34974 -8.17237,1.97358 -11.40065,1.49994 -4.9834,-0.73129 -8.52191,-1.96332 -11.488493,-3.63263 -2.83757,-1.59792 -6.83928,-5.11432 -9.11965,-7.44678 -1.88721,-1.93064 -3.897897,-4.10222 -6.205916,-6.42376 -2.300033,-2.31361 -2.989306,-6.41201 -1.422163,-9.27342 l 15.374709,-28.05911 a 3.3072693,3.3072693 0 0 1 4.017693,-1.52383 z m -27.64463,53.49475 c 1.646391,0.20334 3.314284,1.03618 4.792964,2.51904 1.725025,1.72877 3.535441,3.44212 5.554113,5.12359 5.45643,4.54349 12.48186,8.24289 22.149493,10.08888 3.71052,0.70831 5.40299,3.68072 3.93536,7.16198 -2.44132,5.79487 -4.36416,11.62973 -5.93315,17.49211 -0.97493,3.64983 -4.690983,6.3558 -8.378783,5.54225 -13.520061,-2.98242 -24.224674,-10.18882 -32.207213,-19.08867 -3.72711,-4.15554 -4.006628,-11.96626 -1.323257,-16.86587 l 4.295975,-7.84026 c 1.678951,-3.0621 4.36908,-4.47198 7.114498,-4.13305 z m 63.93035,10.19368 c 0.70033,0.0886 1.34107,0.51541 1.78462,1.29174 l 6.27533,10.97633 c 0.8877,1.5527 1.23725,4.21679 0.61309,5.89273 -1.12483,3.02536 -2.5648,5.61056 -4.30089,7.84597 -1.09718,1.41196 -2.89961,1.19886 -3.87516,-0.29973 -3.66015,-5.61561 -7.75278,-11.07419 -12.54144,-16.27906 -1.21084,-1.31607 -0.85146,-2.80918 0.80783,-3.47591 3.4863,-1.40011 6.53396,-3.04908 9.0957,-5.21396 0.68251,-0.57685 1.44182,-0.8267 2.14092,-0.73811 z m -87.799334,30.28874 c 2.09362,-0.23424 4.356179,0.62557 6.376079,2.55233 10.206396,9.73534 23.478888,17.37932 39.367172,20.35376 2.28591,0.42812 3.86227,2.52543 3.52254,4.827 -0.54797,3.69645 -1.04865,7.39653 -1.54441,11.0971 -0.30839,2.30612 -2.41368,3.83542 -4.68546,3.33499 -16.470664,-3.62808 -33.489925,-10.63255 -47.014904,-19.86924 -4.611124,-3.1494 -5.868033,-10.09698 -3.182818,-14.99629 l 1.801201,-3.28756 c 1.3423,-2.4498 3.26698,-3.77791 5.3606,-4.01209 z m 106.703964,3.00503 c 0.74947,0.0289 1.46823,0.50596 2.0027,1.44256 l 4.59023,8.02505 c 1.07138,1.87345 0.806,4.72698 -0.65978,6.31047 -1.52783,1.65124 -3.07409,3.20628 -4.63263,4.66961 -1.57328,1.47653 -3.69578,1.04791 -4.66948,-0.87837 -1.29377,-2.56407 -2.59245,-5.12734 -3.91571,-7.68133 -0.99152,-1.91614 -0.46197,-4.57709 1.07077,-6.09558 1.42707,-1.41442 2.7749,-2.92898 4.02628,-4.54914 0.65979,-0.85366 1.43998,-1.27239 2.18762,-1.24327 z"
       id="rect29477" />
  </g>
</svg>
