<svg width="46" height="82" viewBox="0 0 46 82" fill="none" xmlns="http://www.w3.org/2000/svg">
<path d="M30.1932 63.9474C22.8809 68.3215 13.5361 67.5834 8.24859 62.8056C0.85455 56.1244 2.14535 44.3664 4.46001 33.2504C6.77472 22.1344 -3.60255 16.6245 2.57835 6.40551C5.79185 1.09255 12.7484 -0.823091 18.1163 2.1268C23.4842 5.07669 22.4114 14.5569 22.6636 21.0768C23.1208 32.8918 29.4347 39.1835 35.0884 45.6187C39.6972 51.3671 37.5055 59.5732 30.1932 63.9474V63.9474Z" fill="#FCF8E8"/>
<path d="M35.5755 63.7564C38.7301 62.8877 42.218 65.7526 43.3659 70.1553C44.5138 74.558 42.8871 78.8314 39.7324 79.7C36.5778 80.5687 33.0899 77.7038 31.942 73.3011C30.7941 68.8984 32.4209 64.6251 35.5755 63.7564Z" fill="#FCF8E8"/>
<path d="M27.0116 71.8435C28.678 71.3846 30.5111 72.862 31.1059 75.1435C31.7007 77.4249 30.8321 79.6463 29.1657 80.1052C27.4993 80.564 25.6662 79.0866 25.0714 76.8052C24.4766 74.5238 25.3453 72.3023 27.0116 71.8435Z" fill="#FCF8E8"/>
<path d="M19.4623 72.3579C21.1287 71.899 22.9618 73.3765 23.5566 75.6579C24.1514 77.9393 23.2828 80.1607 21.6164 80.6196C19.95 81.0784 18.1169 79.601 17.5221 77.3196C16.9273 75.0382 17.7959 72.8167 19.4623 72.3579Z" fill="#FCF8E8"/>
<path d="M12.4627 69.6939C13.9515 69.2839 15.5893 70.6039 16.1208 72.6423C16.6523 74.6807 15.8761 76.6655 14.3872 77.0755C12.8984 77.4855 11.2606 76.1654 10.7291 74.127C10.1976 72.0887 10.9738 70.1039 12.4627 69.6939Z" fill="#FCF8E8"/>
<path d="M6.95273 66.0932C8.16322 65.7599 9.4948 66.8331 9.9269 68.4904C10.359 70.1477 9.72797 71.7613 8.51748 72.0947C7.30698 72.428 5.9754 71.3548 5.54331 69.6975C5.11122 68.0402 5.74224 66.4265 6.95273 66.0932Z" fill="#FCF8E8"/>
</svg>
