<svg width="75" height="1590" viewBox="0 0 75 1590" fill="none" xmlns="http://www.w3.org/2000/svg">
<path d="M1.05564 1557.91C-1.11748 1561.78 0.172128 1566.73 3.93613 1568.96C11.1758 1573.26 26.9423 1568.47 35.0171 1566.25C43.092 1564.03 61.8225 1558.56 66.0024 1551.12C68.1755 1547.25 66.8858 1542.31 63.1218 1540.07C59.3579 1537.84 54.5449 1539.17 52.3717 1543.04C50.276 1546.77 35.6848 1550.32 31.6362 1551.43C27.5875 1552.55 15.4356 1557.11 11.8057 1554.95C8.04177 1552.72 3.22878 1554.04 1.05564 1557.91Z" fill="#FCF8E8"/>
<path d="M28.3146 1587.63C31.3879 1590.79 36.3707 1590.79 39.4439 1587.63C45.3552 1581.56 44.9428 1564.67 44.9428 1556.08C44.9428 1547.49 44.6545 1527.48 38.7434 1521.4C35.6701 1518.24 30.6873 1518.24 27.6141 1521.4C24.5408 1524.56 24.5408 1529.68 27.614 1532.84C30.5779 1535.89 30.1378 1551.29 30.1378 1555.6C30.1378 1559.9 31.2785 1573.15 28.3146 1576.19C25.2413 1579.35 25.2413 1584.47 28.3146 1587.63Z" fill="#FCF8E8"/>
<path d="M63.5439 25.4432C63.5439 29.8018 61.8574 33.9818 58.8553 37.0637C55.8533 40.1457 51.7816 41.8771 47.5361 41.8771C45.4339 41.8771 43.3523 41.452 41.4102 40.6261C39.468 39.8003 37.7033 38.5898 36.2169 37.0637C34.7304 35.5377 33.5513 33.7261 32.7468 31.7322C31.9423 29.7384 31.5283 27.6014 31.5283 25.4432C31.5283 23.2851 31.9423 21.1481 32.7468 19.1543C33.5513 17.1604 34.7304 15.3488 36.2169 13.8228C37.7033 12.2967 39.468 11.0862 41.4102 10.2604C43.3523 9.43447 45.4339 9.0094 47.5361 9.0094C51.7816 9.00941 55.8533 10.7408 58.8553 13.8228C61.8574 16.9047 63.5439 21.0847 63.5439 25.4432Z" fill="#FCF8E8"/>
<path d="M47.5359 0.000244141C33.9524 0.000244141 22.7529 11.4978 22.7529 25.4428C22.7529 39.3879 33.9524 50.8861 47.5359 50.8861C61.1195 50.8861 72.3196 39.3879 72.3196 25.4428C72.3196 11.4978 61.1195 0.000244141 47.5359 0.000244141ZM47.5359 18.0187C51.6341 18.0187 54.7683 21.2356 54.7683 25.4428C54.7683 29.6501 51.6341 32.8677 47.5359 32.8677C43.4378 32.8677 40.3042 29.6501 40.3042 25.4428C40.3042 21.2356 43.4378 18.0187 47.5359 18.0187Z" fill="#FCF8E8"/>
<path d="M47.5359 27.286C43.6493 27.286 39.7705 27.3204 36.7827 27.3915C35.2888 27.427 34.0298 27.4702 33.023 27.5306C32.5197 27.5608 32.0985 27.5901 31.6024 27.6525C31.3543 27.6837 31.1101 27.7098 30.6284 27.8266C30.3876 27.885 30.0971 27.948 29.537 28.1902C28.9769 28.4324 27.8627 28.4617 26.4442 30.984C25.0258 33.5062 25.5582 34.5114 25.6339 35.1305C25.7097 35.7495 25.8017 36.0392 25.8728 36.2825C26.0151 36.7692 26.1153 36.9995 26.213 37.2357C26.4084 37.708 26.5943 38.0969 26.8205 38.5595C27.2729 39.4848 27.8661 40.6258 28.583 41.9718C30.017 44.6637 31.9274 48.1295 33.8707 51.585C35.814 55.0405 37.7824 58.4718 39.3363 61.0926C40.1132 62.403 40.7791 63.5009 41.3335 64.3657C41.6107 64.7982 41.8458 65.158 42.1466 65.5679C42.2969 65.7728 42.4411 65.9769 42.7805 66.3468C42.9502 66.5317 43.1485 66.7583 43.6328 67.1352C44.1172 67.5121 44.6992 68.4881 47.5361 68.4881C50.3729 68.4881 50.9548 67.5121 51.4392 67.1352C51.9235 66.7583 52.1218 66.5317 52.2915 66.3468C52.6309 65.9769 52.7751 65.7728 52.9254 65.5679C53.2261 65.158 53.4613 64.7982 53.7385 64.3657C54.2928 63.5009 54.9588 62.403 55.7357 61.0926C57.2896 58.4718 59.2579 55.0405 61.2012 51.585C63.1445 48.1295 65.055 44.6637 66.4889 41.9718C67.2059 40.6258 67.7991 39.4848 68.2515 38.5595C68.4777 38.0969 68.6636 37.708 68.859 37.2357C68.9567 36.9995 69.0569 36.7692 69.1991 36.2825C69.2703 36.0392 69.3623 35.7495 69.438 35.1305C69.5138 34.5114 70.0462 33.5062 68.6278 30.984C67.2093 28.4617 66.095 28.4324 65.5349 28.1902C64.9748 27.948 64.6844 27.885 64.4436 27.8266C63.9619 27.7098 63.7177 27.6837 63.4696 27.6525C62.9735 27.5901 62.5523 27.5608 62.0489 27.5306C61.0422 27.4702 59.783 27.427 58.2891 27.3915C55.3013 27.3204 51.4225 27.286 47.5359 27.286ZM47.5359 40.4181C49.2841 40.4181 51.0162 40.4274 52.6709 40.4418C51.8557 41.9202 50.9974 43.4647 50.1233 45.0189C49.2493 46.5731 48.3755 48.1084 47.5361 49.5723C46.6965 48.1084 45.8227 46.5732 44.9487 45.0189C44.0746 43.4647 43.2163 41.9202 42.401 40.4418C44.0558 40.4274 45.7878 40.4181 47.5359 40.4181Z" fill="#FCF8E8"/>
<path d="M45.3912 417.417C52.7034 421.791 62.0482 421.052 67.3357 416.275C74.7298 409.593 73.4389 397.836 71.1243 386.72C68.8096 375.604 79.1868 370.094 73.0059 359.875C69.7924 354.562 62.8359 352.646 57.468 355.596C52.1001 358.546 53.1729 368.026 52.9207 374.546C52.4635 386.361 46.1496 392.653 40.4959 399.088C35.8871 404.836 38.0788 413.042 45.3912 417.417Z" fill="#FCF8E8"/>
<path d="M40.0085 417.225C36.8539 416.357 33.366 419.222 32.2181 423.624C31.0702 428.027 32.6969 432.3 35.8515 433.169C39.0062 434.038 42.494 431.173 43.6419 426.77C44.7899 422.367 43.1631 418.094 40.0085 417.225Z" fill="#FCF8E8"/>
<path d="M48.5724 425.313C46.906 424.854 45.0729 426.331 44.4781 428.613C43.8833 430.894 44.7519 433.115 46.4183 433.574C48.0847 434.033 49.9177 432.556 50.5126 430.274C51.1074 427.993 50.2387 425.771 48.5724 425.313Z" fill="#FCF8E8"/>
<path d="M56.1221 425.827C54.4558 425.368 52.6227 426.846 52.0279 429.127C51.433 431.408 52.3017 433.63 53.9681 434.089C55.6345 434.548 57.4676 433.07 58.0624 430.789C58.6572 428.507 57.7885 426.286 56.1221 425.827Z" fill="#FCF8E8"/>
<path d="M63.1208 423.163C61.632 422.753 59.9942 424.073 59.4627 426.111C58.9312 428.15 59.7074 430.135 61.1962 430.545C62.6851 430.955 64.3229 429.635 64.8544 427.596C65.3858 425.558 64.6097 423.573 63.1208 423.163Z" fill="#FCF8E8"/>
<path d="M68.6317 419.562C67.4213 419.229 66.0897 420.302 65.6576 421.959C65.2255 423.617 65.8565 425.23 67.067 425.564C68.2775 425.897 69.6091 424.824 70.0412 423.166C70.4733 421.509 69.8422 419.895 68.6317 419.562Z" fill="#FCF8E8"/>
<path d="M41.4065 517.053C34.0943 521.427 24.7495 520.689 19.462 515.911C12.0679 509.23 13.3587 497.472 15.6734 486.356C17.9881 475.24 7.61083 469.73 13.7917 459.511C17.0052 454.198 23.9618 452.283 29.3297 455.233C34.6976 458.183 33.6248 467.663 33.877 474.183C34.3342 485.998 40.6481 492.289 46.3018 498.725C50.9105 504.473 48.7189 512.679 41.4065 517.053Z" fill="#FCF8E8"/>
<path d="M46.7889 516.862C49.9435 515.994 53.4314 518.858 54.5793 523.261C55.7272 527.664 54.1004 531.937 50.9458 532.806C47.7912 533.675 44.3033 530.81 43.1554 526.407C42.0075 522.004 43.6343 517.731 46.7889 516.862Z" fill="#FCF8E8"/>
<path d="M38.2255 524.949C39.8919 524.491 41.725 525.968 42.3198 528.249C42.9146 530.531 42.0459 532.752 40.3796 533.211C38.7132 533.67 36.8801 532.193 36.2853 529.911C35.6905 527.63 36.5591 525.408 38.2255 524.949Z" fill="#FCF8E8"/>
<path d="M30.6757 525.464C32.3421 525.005 34.1752 526.483 34.77 528.764C35.3648 531.045 34.4961 533.267 32.8297 533.726C31.1634 534.185 29.3303 532.707 28.7355 530.426C28.1407 528.144 29.0093 525.923 30.6757 525.464Z" fill="#FCF8E8"/>
<path d="M23.6765 522.8C25.1654 522.39 26.8032 523.71 27.3347 525.748C27.8661 527.787 27.09 529.771 25.6011 530.181C24.1122 530.591 22.4744 529.271 21.943 527.233C21.4115 525.195 22.1876 523.21 23.6765 522.8Z" fill="#FCF8E8"/>
<path d="M18.1661 519.199C19.3766 518.865 20.7082 519.939 21.1403 521.596C21.5724 523.253 20.9413 524.867 19.7309 525.2C18.5204 525.534 17.1888 524.46 16.7567 522.803C16.3246 521.146 16.9556 519.532 18.1661 519.199Z" fill="#FCF8E8"/>
<path d="M41.1778 883.346C48.49 887.72 57.8348 886.982 63.1223 882.204C70.5164 875.523 69.2255 863.765 66.9109 852.649C64.5962 841.533 74.9735 836.023 68.7926 825.804C65.5791 820.491 58.6225 818.575 53.2547 821.525C47.8868 824.475 48.9595 833.955 48.7073 840.475C48.2501 852.29 41.9362 858.582 36.2825 865.017C31.6738 870.766 33.8654 878.972 41.1778 883.346Z" fill="#FCF8E8"/>
<path d="M35.7951 883.155C32.6405 882.286 29.1526 885.151 28.0047 889.554C26.8568 893.956 28.4835 898.23 31.6382 899.098C34.7928 899.967 38.2807 897.102 39.4286 892.7C40.5765 888.297 38.9497 884.024 35.7951 883.155Z" fill="#FCF8E8"/>
<path d="M44.359 891.242C42.6926 890.783 40.8595 892.261 40.2647 894.542C39.6699 896.823 40.5385 899.045 42.2049 899.504C43.8713 899.963 45.7044 898.485 46.2992 896.204C46.894 893.922 46.0254 891.701 44.359 891.242Z" fill="#FCF8E8"/>
<path d="M51.9088 891.757C50.2424 891.298 48.4093 892.775 47.8145 895.057C47.2197 897.338 48.0883 899.559 49.7547 900.018C51.4211 900.477 53.2542 899 53.849 896.718C54.4438 894.437 53.5752 892.215 51.9088 891.757Z" fill="#FCF8E8"/>
<path d="M58.9075 889.092C57.4186 888.682 55.7808 890.003 55.2493 892.041C54.7179 894.079 55.494 896.064 56.9829 896.474C58.4717 896.884 60.1095 895.564 60.641 893.526C61.1725 891.487 60.3963 889.502 58.9075 889.092Z" fill="#FCF8E8"/>
<path d="M64.4184 885.492C63.2079 885.158 61.8763 886.231 61.4442 887.889C61.0121 889.546 61.6431 891.16 62.8536 891.493C64.0641 891.826 65.3957 890.753 65.8278 889.096C66.2599 887.439 65.6289 885.825 64.4184 885.492Z" fill="#FCF8E8"/>
<path d="M37.1931 982.983C29.8809 987.357 20.5361 986.619 15.2486 981.841C7.85455 975.16 9.14535 963.402 11.46 952.286C13.7747 941.17 3.39745 935.66 9.57835 925.441C12.7919 920.128 19.7484 918.212 25.1163 921.162C30.4842 924.112 29.4114 933.592 29.6636 940.112C30.1208 951.927 36.4347 958.219 42.0884 964.654C46.6972 970.402 44.5055 978.608 37.1931 982.983Z" fill="#FCF8E8"/>
<path d="M42.5755 982.792C45.7301 981.923 49.218 984.788 50.3659 989.19C51.5138 993.593 49.8871 997.867 46.7324 998.735C43.5778 999.604 40.0899 996.739 38.942 992.336C37.7941 987.934 39.4209 983.66 42.5755 982.792Z" fill="#FCF8E8"/>
<path d="M34.0116 990.879C35.678 990.42 37.5111 991.897 38.1059 994.179C38.7007 996.46 37.8321 998.682 36.1657 999.141C34.4993 999.599 32.6662 998.122 32.0714 995.841C31.4766 993.559 32.3453 991.338 34.0116 990.879Z" fill="#FCF8E8"/>
<path d="M26.4623 991.393C28.1287 990.934 29.9618 992.412 30.5566 994.693C31.1514 996.975 30.2828 999.196 28.6164 999.655C26.95 1000.11 25.1169 998.636 24.5221 996.355C23.9273 994.074 24.7959 991.852 26.4623 991.393Z" fill="#FCF8E8"/>
<path d="M19.4627 988.729C20.9515 988.319 22.5893 989.639 23.1208 991.678C23.6523 993.716 22.8761 995.701 21.3872 996.111C19.8984 996.521 18.2606 995.201 17.7291 993.162C17.1976 991.124 17.9738 989.139 19.4627 988.729Z" fill="#FCF8E8"/>
<path d="M13.9527 985.128C15.1632 984.795 16.4948 985.868 16.9269 987.526C17.359 989.183 16.728 990.797 15.5175 991.13C14.307 991.463 12.9754 990.39 12.5433 988.733C12.1112 987.075 12.7422 985.462 13.9527 985.128Z" fill="#FCF8E8"/>
<path d="M41.1778 1349.28C48.49 1353.65 57.8348 1352.91 63.1223 1348.13C70.5164 1341.45 69.2255 1329.69 66.9109 1318.58C64.5962 1307.46 74.9735 1301.95 68.7926 1291.73C65.5791 1286.42 58.6225 1284.5 53.2547 1287.45C47.8868 1290.4 48.9595 1299.88 48.7073 1306.4C48.2501 1318.22 41.9362 1324.51 36.2825 1330.95C31.6738 1336.7 33.8654 1344.9 41.1778 1349.28Z" fill="#FCF8E8"/>
<path d="M35.7951 1349.08C32.6405 1348.22 29.1526 1351.08 28.0047 1355.48C26.8568 1359.89 28.4835 1364.16 31.6382 1365.03C34.7928 1365.9 38.2807 1363.03 39.4286 1358.63C40.5765 1354.23 38.9497 1349.95 35.7951 1349.08Z" fill="#FCF8E8"/>
<path d="M44.359 1357.17C42.6926 1356.71 40.8595 1358.19 40.2647 1360.47C39.6699 1362.75 40.5385 1364.97 42.2049 1365.43C43.8713 1365.89 45.7044 1364.41 46.2992 1362.13C46.894 1359.85 46.0254 1357.63 44.359 1357.17Z" fill="#FCF8E8"/>
<path d="M51.9088 1357.69C50.2424 1357.23 48.4093 1358.7 47.8145 1360.99C47.2197 1363.27 48.0883 1365.49 49.7547 1365.95C51.4211 1366.41 53.2542 1364.93 53.849 1362.65C54.4438 1360.37 53.5752 1358.14 51.9088 1357.69Z" fill="#FCF8E8"/>
<path d="M58.9075 1355.02C57.4186 1354.61 55.7808 1355.93 55.2493 1357.97C54.7179 1360.01 55.494 1361.99 56.9829 1362.4C58.4717 1362.81 60.1095 1361.49 60.641 1359.45C61.1725 1357.42 60.3963 1355.43 58.9075 1355.02Z" fill="#FCF8E8"/>
<path d="M64.4184 1351.42C63.2079 1351.09 61.8763 1352.16 61.4442 1353.82C61.0121 1355.48 61.6431 1357.09 62.8536 1357.42C64.0641 1357.76 65.3957 1356.68 65.8278 1355.03C66.2599 1353.37 65.6289 1351.75 64.4184 1351.42Z" fill="#FCF8E8"/>
<path d="M37.1931 1448.91C29.8809 1453.29 20.5361 1452.55 15.2486 1447.77C7.85455 1441.09 9.14535 1429.33 11.46 1418.21C13.7747 1407.1 3.39745 1401.59 9.57835 1391.37C12.7919 1386.06 19.7484 1384.14 25.1163 1387.09C30.4842 1390.04 29.4114 1399.52 29.6636 1406.04C30.1208 1417.86 36.4347 1424.15 42.0884 1430.58C46.6972 1436.33 44.5055 1444.54 37.1931 1448.91Z" fill="#FCF8E8"/>
<path d="M42.5755 1448.72C45.7301 1447.85 49.218 1450.72 50.3659 1455.12C51.5138 1459.52 49.8871 1463.8 46.7324 1464.66C43.5778 1465.53 40.0899 1462.67 38.942 1458.27C37.7941 1453.86 39.4209 1449.59 42.5755 1448.72Z" fill="#FCF8E8"/>
<path d="M34.0116 1456.81C35.678 1456.35 37.5111 1457.83 38.1059 1460.11C38.7007 1462.39 37.8321 1464.61 36.1657 1465.07C34.4993 1465.53 32.6662 1464.05 32.0714 1461.77C31.4766 1459.49 32.3453 1457.27 34.0116 1456.81Z" fill="#FCF8E8"/>
<path d="M26.4623 1457.32C28.1287 1456.86 29.9618 1458.34 30.5566 1460.62C31.1514 1462.9 30.2828 1465.13 28.6164 1465.58C26.95 1466.04 25.1169 1464.57 24.5221 1462.28C23.9273 1460 24.7959 1457.78 26.4623 1457.32Z" fill="#FCF8E8"/>
<path d="M19.4627 1454.66C20.9515 1454.25 22.5893 1455.57 23.1208 1457.61C23.6523 1459.65 22.8761 1461.63 21.3872 1462.04C19.8984 1462.45 18.2606 1461.13 17.7291 1459.09C17.1976 1457.05 17.9738 1455.07 19.4627 1454.66Z" fill="#FCF8E8"/>
<path d="M13.9527 1451.06C15.1632 1450.72 16.4948 1451.8 16.9269 1453.45C17.359 1455.11 16.728 1456.73 15.5175 1457.06C14.307 1457.39 12.9754 1456.32 12.5433 1454.66C12.1112 1453 12.7422 1451.39 13.9527 1451.06Z" fill="#FCF8E8"/>
<path d="M45.3912 184.452C52.7034 188.826 62.0482 188.088 67.3357 183.31C74.7298 176.629 73.4389 164.871 71.1243 153.755C68.8096 142.639 79.1868 137.129 73.0059 126.91C69.7924 121.597 62.8359 119.681 57.468 122.631C52.1001 125.581 53.1729 135.061 52.9207 141.581C52.4635 153.396 46.1496 159.688 40.4959 166.123C35.8871 171.872 38.0788 180.078 45.3912 184.452Z" fill="#FCF8E8"/>
<path d="M40.0085 184.261C36.8539 183.392 33.366 186.257 32.2181 190.66C31.0702 195.062 32.6969 199.336 35.8515 200.204C39.0062 201.073 42.494 198.208 43.6419 193.806C44.7899 189.403 43.1631 185.129 40.0085 184.261Z" fill="#FCF8E8"/>
<path d="M48.5724 192.348C46.906 191.889 45.0729 193.367 44.4781 195.648C43.8833 197.929 44.7519 200.151 46.4183 200.61C48.0847 201.069 49.9177 199.591 50.5126 197.31C51.1074 195.028 50.2387 192.807 48.5724 192.348Z" fill="#FCF8E8"/>
<path d="M56.1221 192.862C54.4558 192.404 52.6227 193.881 52.0279 196.162C51.433 198.444 52.3017 200.665 53.9681 201.124C55.6345 201.583 57.4676 200.106 58.0624 197.824C58.6572 195.543 57.7885 193.321 56.1221 192.862Z" fill="#FCF8E8"/>
<path d="M63.1208 190.198C61.632 189.788 59.9942 191.108 59.4627 193.147C58.9312 195.185 59.7074 197.17 61.1962 197.58C62.6851 197.99 64.3229 196.67 64.8544 194.631C65.3858 192.593 64.6097 190.608 63.1208 190.198Z" fill="#FCF8E8"/>
<path d="M68.6317 186.597C67.4213 186.264 66.0897 187.337 65.6576 188.995C65.2255 190.652 65.8565 192.266 67.067 192.599C68.2775 192.932 69.6091 191.859 70.0412 190.202C70.4733 188.544 69.8422 186.931 68.6317 186.597Z" fill="#FCF8E8"/>
<path d="M41.4065 284.088C34.0943 288.463 24.7495 287.724 19.462 282.947C12.0679 276.265 13.3587 264.508 15.6734 253.392C17.9881 242.275 7.61083 236.766 13.7917 226.547C17.0052 221.234 23.9618 219.318 29.3297 222.268C34.6976 225.218 33.6248 234.698 33.877 241.218C34.3342 253.033 40.6481 259.325 46.3018 265.76C50.9105 271.508 48.7189 279.714 41.4065 284.088Z" fill="#FCF8E8"/>
<path d="M46.7889 283.898C49.9435 283.029 53.4314 285.894 54.5793 290.296C55.7272 294.699 54.1004 298.972 50.9458 299.841C47.7912 300.71 44.3033 297.845 43.1554 293.442C42.0075 289.04 43.6343 284.766 46.7889 283.898Z" fill="#FCF8E8"/>
<path d="M38.2255 291.985C39.8919 291.526 41.725 293.003 42.3198 295.285C42.9146 297.566 42.0459 299.788 40.3796 300.246C38.7132 300.705 36.8801 299.228 36.2853 296.946C35.6905 294.665 36.5591 292.444 38.2255 291.985Z" fill="#FCF8E8"/>
<path d="M30.6757 292.499C32.3421 292.04 34.1752 293.518 34.77 295.799C35.3648 298.081 34.4961 300.302 32.8297 300.761C31.1634 301.22 29.3303 299.742 28.7355 297.461C28.1407 295.18 29.0093 292.958 30.6757 292.499Z" fill="#FCF8E8"/>
<path d="M23.6765 289.835C25.1654 289.425 26.8032 290.745 27.3347 292.784C27.8661 294.822 27.09 296.807 25.6011 297.217C24.1122 297.627 22.4744 296.307 21.943 294.268C21.4115 292.23 22.1876 290.245 23.6765 289.835Z" fill="#FCF8E8"/>
<path d="M18.1661 286.234C19.3766 285.901 20.7082 286.974 21.1403 288.631C21.5724 290.289 20.9413 291.902 19.7309 292.236C18.5204 292.569 17.1888 291.496 16.7567 289.838C16.3246 288.181 16.9556 286.567 18.1661 286.234Z" fill="#FCF8E8"/>
<path d="M41.1778 650.381C48.49 654.755 57.8348 654.017 63.1223 649.239C70.5164 642.558 69.2255 630.8 66.9109 619.684C64.5962 608.568 74.9735 603.058 68.7926 592.839C65.5791 587.526 58.6225 585.611 53.2547 588.561C47.8868 591.511 48.9595 600.991 48.7073 607.511C48.2501 619.326 41.9362 625.617 36.2825 632.053C31.6738 637.801 33.8654 646.007 41.1778 650.381Z" fill="#FCF8E8"/>
<path d="M35.7951 650.19C32.6405 649.322 29.1526 652.186 28.0047 656.589C26.8568 660.992 28.4835 665.265 31.6382 666.134C34.7928 667.003 38.2807 664.138 39.4286 659.735C40.5765 655.332 38.9497 651.059 35.7951 650.19Z" fill="#FCF8E8"/>
<path d="M44.359 658.277C42.6926 657.819 40.8595 659.296 40.2647 661.577C39.6699 663.859 40.5385 666.08 42.2049 666.539C43.8713 666.998 45.7044 665.521 46.2992 663.239C46.894 660.958 46.0254 658.736 44.359 658.277Z" fill="#FCF8E8"/>
<path d="M51.9088 658.792C50.2424 658.333 48.4093 659.81 47.8145 662.092C47.2197 664.373 48.0883 666.595 49.7547 667.054C51.4211 667.512 53.2542 666.035 53.849 663.754C54.4438 661.472 53.5752 659.251 51.9088 658.792Z" fill="#FCF8E8"/>
<path d="M58.9075 656.128C57.4186 655.718 55.7808 657.038 55.2493 659.076C54.7179 661.115 55.494 663.099 56.9829 663.509C58.4717 663.919 60.1095 662.599 60.641 660.561C61.1725 658.523 60.3963 656.538 58.9075 656.128Z" fill="#FCF8E8"/>
<path d="M64.4184 652.527C63.2079 652.193 61.8763 653.267 61.4442 654.924C61.0121 656.581 61.6431 658.195 62.8536 658.528C64.0641 658.862 65.3957 657.788 65.8278 656.131C66.2599 654.474 65.6289 652.86 64.4184 652.527Z" fill="#FCF8E8"/>
<path d="M37.1931 750.018C29.8809 754.392 20.5361 753.654 15.2486 748.876C7.85455 742.195 9.14535 730.437 11.46 719.321C13.7747 708.205 3.39745 702.695 9.57835 692.476C12.7919 687.163 19.7484 685.247 25.1163 688.197C30.4842 691.147 29.4114 700.627 29.6636 707.147C30.1208 718.962 36.4347 725.254 42.0884 731.689C46.6972 737.438 44.5055 745.644 37.1931 750.018Z" fill="#FCF8E8"/>
<path d="M42.5755 749.827C45.7301 748.958 49.218 751.823 50.3659 756.226C51.5138 760.629 49.8871 764.902 46.7324 765.771C43.5778 766.639 40.0899 763.774 38.942 759.372C37.7941 754.969 39.4209 750.696 42.5755 749.827Z" fill="#FCF8E8"/>
<path d="M34.0116 757.914C35.678 757.455 37.5111 758.933 38.1059 761.214C38.7007 763.495 37.8321 765.717 36.1657 766.176C34.4993 766.635 32.6662 765.157 32.0714 762.876C31.4766 760.594 32.3453 758.373 34.0116 757.914Z" fill="#FCF8E8"/>
<path d="M26.4623 758.429C28.1287 757.97 29.9618 759.447 30.5566 761.729C31.1514 764.01 30.2828 766.232 28.6164 766.69C26.95 767.149 25.1169 765.672 24.5221 763.39C23.9273 761.109 24.7959 758.888 26.4623 758.429Z" fill="#FCF8E8"/>
<path d="M19.4627 755.765C20.9515 755.355 22.5893 756.675 23.1208 758.713C23.6523 760.751 22.8761 762.736 21.3872 763.146C19.8984 763.556 18.2606 762.236 17.7291 760.198C17.1976 758.159 17.9738 756.175 19.4627 755.765Z" fill="#FCF8E8"/>
<path d="M13.9527 752.164C15.1632 751.83 16.4948 752.903 16.9269 754.561C17.359 756.218 16.728 757.832 15.5175 758.165C14.307 758.498 12.9754 757.425 12.5433 755.768C12.1112 754.111 12.7422 752.497 13.9527 752.164Z" fill="#FCF8E8"/>
<path d="M41.1778 1116.31C48.49 1120.68 57.8348 1119.95 63.1223 1115.17C70.5164 1108.49 69.2255 1096.73 66.9109 1085.61C64.5962 1074.5 74.9735 1068.99 68.7926 1058.77C65.5791 1053.46 58.6225 1051.54 53.2547 1054.49C47.8868 1057.44 48.9595 1066.92 48.7073 1073.44C48.2501 1085.26 41.9362 1091.55 36.2825 1097.98C31.6738 1103.73 33.8654 1111.94 41.1778 1116.31Z" fill="#FCF8E8"/>
<path d="M35.7951 1116.12C32.6405 1115.25 29.1526 1118.12 28.0047 1122.52C26.8568 1126.92 28.4835 1131.19 31.6382 1132.06C34.7928 1132.93 38.2807 1130.07 39.4286 1125.66C40.5765 1121.26 38.9497 1116.99 35.7951 1116.12Z" fill="#FCF8E8"/>
<path d="M44.359 1124.21C42.6926 1123.75 40.8595 1125.23 40.2647 1127.51C39.6699 1129.79 40.5385 1132.01 42.2049 1132.47C43.8713 1132.93 45.7044 1131.45 46.2992 1129.17C46.894 1126.89 46.0254 1124.67 44.359 1124.21Z" fill="#FCF8E8"/>
<path d="M51.9088 1124.72C50.2424 1124.26 48.4093 1125.74 47.8145 1128.02C47.2197 1130.3 48.0883 1132.52 49.7547 1132.98C51.4211 1133.44 53.2542 1131.96 53.849 1129.68C54.4438 1127.4 53.5752 1125.18 51.9088 1124.72Z" fill="#FCF8E8"/>
<path d="M58.9075 1122.06C57.4186 1121.65 55.7808 1122.97 55.2493 1125.01C54.7179 1127.04 55.494 1129.03 56.9829 1129.44C58.4717 1129.85 60.1095 1128.53 60.641 1126.49C61.1725 1124.45 60.3963 1122.47 58.9075 1122.06Z" fill="#FCF8E8"/>
<path d="M64.4184 1118.46C63.2079 1118.12 61.8763 1119.2 61.4442 1120.85C61.0121 1122.51 61.6431 1124.12 62.8536 1124.46C64.0641 1124.79 65.3957 1123.72 65.8278 1122.06C66.2599 1120.4 65.6289 1118.79 64.4184 1118.46Z" fill="#FCF8E8"/>
<path d="M37.1931 1215.95C29.8809 1220.32 20.5361 1219.58 15.2486 1214.81C7.85455 1208.12 9.14535 1196.37 11.46 1185.25C13.7747 1174.13 3.39745 1168.62 9.57835 1158.41C12.7919 1153.09 19.7484 1151.18 25.1163 1154.13C30.4842 1157.08 29.4114 1166.56 29.6636 1173.08C30.1208 1184.89 36.4347 1191.18 42.0884 1197.62C46.6972 1203.37 44.5055 1211.57 37.1931 1215.95Z" fill="#FCF8E8"/>
<path d="M42.5755 1215.76C45.7301 1214.89 49.218 1217.75 50.3659 1222.16C51.5138 1226.56 49.8871 1230.83 46.7324 1231.7C43.5778 1232.57 40.0899 1229.7 38.942 1225.3C37.7941 1220.9 39.4209 1216.63 42.5755 1215.76Z" fill="#FCF8E8"/>
<path d="M34.0116 1223.84C35.678 1223.38 37.5111 1224.86 38.1059 1227.14C38.7007 1229.42 37.8321 1231.65 36.1657 1232.11C34.4993 1232.56 32.6662 1231.09 32.0714 1228.81C31.4766 1226.52 32.3453 1224.3 34.0116 1223.84Z" fill="#FCF8E8"/>
<path d="M26.4623 1224.36C28.1287 1223.9 29.9618 1225.38 30.5566 1227.66C31.1514 1229.94 30.2828 1232.16 28.6164 1232.62C26.95 1233.08 25.1169 1231.6 24.5221 1229.32C23.9273 1227.04 24.7959 1224.82 26.4623 1224.36Z" fill="#FCF8E8"/>
<path d="M19.4627 1221.69C20.9515 1221.28 22.5893 1222.6 23.1208 1224.64C23.6523 1226.68 22.8761 1228.67 21.3872 1229.08C19.8984 1229.49 18.2606 1228.17 17.7291 1226.13C17.1976 1224.09 17.9738 1222.1 19.4627 1221.69Z" fill="#FCF8E8"/>
<path d="M13.9527 1218.09C15.1632 1217.76 16.4948 1218.83 16.9269 1220.49C17.359 1222.15 16.728 1223.76 15.5175 1224.09C14.307 1224.43 12.9754 1223.35 12.5433 1221.7C12.1112 1220.04 12.7422 1218.43 13.9527 1218.09Z" fill="#FCF8E8"/>
</svg>
