<svg width="51" height="69" viewBox="0 0 51 69" fill="none" xmlns="http://www.w3.org/2000/svg">
<path d="M41.5439 25.4432C41.5439 29.8018 39.8574 33.9818 36.8553 37.0637C33.8533 40.1457 29.7816 41.8771 25.5361 41.8771C23.4339 41.8771 21.3523 41.452 19.4102 40.6261C17.468 39.8003 15.7033 38.5898 14.2169 37.0637C12.7304 35.5377 11.5513 33.7261 10.7468 31.7322C9.94233 29.7384 9.52832 27.6014 9.52832 25.4432C9.52832 23.2851 9.94233 21.1481 10.7468 19.1543C11.5513 17.1604 12.7304 15.3488 14.2169 13.8228C15.7033 12.2967 17.468 11.0862 19.4102 10.2604C21.3523 9.43447 23.4339 9.0094 25.5361 9.0094C29.7816 9.00941 33.8533 10.7408 36.8553 13.8228C39.8574 16.9047 41.5439 21.0847 41.5439 25.4432V25.4432Z" fill="#FCF8E8"/>
<path d="M25.5359 0.000244141C11.9524 0.000244141 0.75293 11.4978 0.75293 25.4428C0.75293 39.3879 11.9524 50.8861 25.5359 50.8861C39.1195 50.8861 50.3196 39.3879 50.3196 25.4428C50.3196 11.4978 39.1195 0.000244141 25.5359 0.000244141V0.000244141ZM25.5359 18.0187C29.6341 18.0187 32.7683 21.2356 32.7683 25.4428C32.7683 29.6501 29.6341 32.8677 25.5359 32.8677C21.4378 32.8677 18.3042 29.6501 18.3042 25.4428C18.3042 21.2356 21.4378 18.0187 25.5359 18.0187V18.0187Z" fill="#FCF8E8"/>
<path d="M25.5359 27.286C21.6493 27.286 17.7705 27.3204 14.7827 27.3915C13.2888 27.427 12.0298 27.4702 11.023 27.5306C10.5197 27.5608 10.0985 27.5901 9.60236 27.6525C9.35431 27.6837 9.11008 27.7098 8.6284 27.8266C8.38755 27.885 8.09714 27.948 7.53704 28.1902C6.97694 28.4324 5.86266 28.4617 4.44422 30.984C3.02578 33.5062 3.55818 34.5114 3.63393 35.1305C3.70968 35.7495 3.80168 36.0392 3.87283 36.2825C4.01512 36.7692 4.11529 36.9995 4.21299 37.2357C4.40839 37.708 4.59427 38.0969 4.82048 38.5595C5.27288 39.4848 5.86606 40.6258 6.58304 41.9718C8.01699 44.6637 9.92744 48.1295 11.8707 51.585C13.814 55.0405 15.7824 58.4718 17.3363 61.0926C18.1132 62.403 18.7791 63.5009 19.3335 64.3658C19.6107 64.7982 19.8459 65.158 20.1466 65.5679C20.2969 65.7728 20.4411 65.9769 20.7805 66.3468C20.9502 66.5317 21.1485 66.7583 21.6328 67.1352C22.1172 67.5121 22.6992 68.4881 25.5361 68.4881C28.3729 68.4881 28.9548 67.5121 29.4392 67.1352C29.9235 66.7583 30.1218 66.5317 30.2915 66.3468C30.6309 65.9769 30.7751 65.7728 30.9254 65.5679C31.2261 65.158 31.4613 64.7982 31.7385 64.3658C32.2928 63.5009 32.9588 62.403 33.7357 61.0926C35.2896 58.4718 37.2579 55.0405 39.2012 51.585C41.1445 48.1295 43.055 44.6637 44.4889 41.9718C45.2059 40.6258 45.7991 39.4848 46.2515 38.5595C46.4777 38.0969 46.6636 37.708 46.859 37.2357C46.9567 36.9995 47.0569 36.7692 47.1991 36.2825C47.2703 36.0392 47.3623 35.7495 47.438 35.1305C47.5138 34.5114 48.0462 33.5062 46.6278 30.984C45.2093 28.4617 44.095 28.4324 43.5349 28.1902C42.9748 27.948 42.6844 27.885 42.4436 27.8266C41.9619 27.7098 41.7177 27.6837 41.4696 27.6525C40.9735 27.5901 40.5523 27.5608 40.0489 27.5306C39.0422 27.4702 37.783 27.427 36.2891 27.3915C33.3013 27.3204 29.4225 27.286 25.5359 27.286V27.286ZM25.5359 40.4181C27.2841 40.4181 29.0162 40.4274 30.6709 40.4418C29.8557 41.9202 28.9974 43.4647 28.1233 45.0189C27.2493 46.5731 26.3755 48.1084 25.5361 49.5723C24.6965 48.1084 23.8227 46.5731 22.9487 45.0189C22.0746 43.4647 21.2163 41.9202 20.401 40.4418C22.0558 40.4274 23.7878 40.4181 25.5359 40.4181Z" fill="#FCF8E8"/>
</svg>
